<?xml version="1.0" standalone="no"?>
<!DOCTYPE svg PUBLIC "-//W3C//DTD SVG 20010904//EN"
 "http://www.w3.org/TR/2001/REC-SVG-20010904/DTD/svg10.dtd">
<svg version="1.0" xmlns="http://www.w3.org/2000/svg"
 width="500.000000pt" height="500.000000pt" viewBox="0 0 500.000000 500.000000"
 preserveAspectRatio="xMidYMid meet">

<g transform="translate(0.000000,500.000000) scale(0.100000,-0.100000)"
fill="#000000" stroke="none">
<path d="M1340 4983 c-37 -14 -54 -50 -130 -279 l-82 -244 -79 0 c-73 0 -81
-2 -111 -29 l-33 -29 -3 -269 c-4 -308 1 -337 58 -365 20 -10 58 -18 87 -18
61 0 58 6 68 -137 l7 -93 -72 0 c-83 0 -122 -16 -139 -58 -10 -24 10 -241 119
-1308 72 -703 133 -1286 135 -1295 12 -36 54 -62 110 -67 37 -3 55 -9 55 -18
0 -76 53 -686 62 -707 24 -60 -29 -57 1108 -57 1137 0 1084 -3 1108 57 9 21
62 631 62 707 0 9 18 15 55 18 56 5 98 31 110 67 2 9 63 592 135 1295 109
1067 129 1284 119 1308 -17 42 -56 58 -139 58 l-72 0 7 93 c10 143 7 137 68
137 29 0 67 8 87 18 57 28 62 57 58 365 l-3 269 -33 29 c-30 27 -38 29 -111
29 l-79 0 -82 244 c-52 156 -88 250 -101 262 -20 18 -65 19 -1178 21 -636 1
-1163 -1 -1171 -4z m2347 -1315 c-4 -46 -7 -98 -7 -115 l0 -33 -1179 0 -1178
0 -6 83 c-4 45 -7 97 -7 115 l0 32 1191 0 1192 0 -6 -82z m-180 -395 c-3 -27
-56 -549 -118 -1160 l-114 -1113 -960 0 -961 0 -117 1153 c-65 633 -118 1155
-117 1160 0 4 538 7 1196 7 l1197 0 -6 -47z m-40 -2525 c-3 -24 -14 -154 -23
-290 l-18 -248 -926 0 -926 0 -17 243 c-10 133 -21 263 -24 290 l-6 47 973 0
972 0 -5 -42z"/>
<path d="M2400 2990 c-191 -24 -380 -128 -501 -274 -59 -72 -132 -214 -156
-306 -13 -47 -18 -102 -17 -195 0 -155 15 -219 81 -355 40 -81 61 -109 143
-191 85 -86 107 -102 200 -147 127 -61 216 -82 350 -82 134 0 223 21 350 82
93 45 115 61 200 147 82 82 103 110 143 191 66 136 81 200 81 355 1 155 -14
219 -79 350 -74 150 -177 257 -325 339 -129 70 -320 105 -470 86z"/>
</g>
</svg>
